<svg xmlns="http://www.w3.org/2000/svg" xmlns:xlink="http://www.w3.org/1999/xlink" width="512" zoomAndPan="magnify" viewBox="0 0 384 383.999986" height="512" preserveAspectRatio="xMidYMid meet" version="1.0"><defs><clipPath id="4085b92937"><path d="M 9.121094 0 L 375 0 L 375 384 L 9.121094 384 Z M 9.121094 0 " clip-rule="nonzero"/></clipPath></defs><path fill="#000000" d="M 164.570312 201.726562 C 164.953125 201.722656 165.339844 201.691406 165.722656 201.640625 C 166.105469 201.589844 166.484375 201.511719 166.855469 201.414062 C 167.230469 201.3125 167.597656 201.191406 167.953125 201.046875 C 168.3125 200.898438 168.660156 200.730469 168.996094 200.542969 C 169.332031 200.355469 169.65625 200.144531 169.96875 199.914062 C 170.277344 199.683594 170.574219 199.433594 170.851562 199.167969 C 171.132812 198.902344 171.394531 198.617188 171.636719 198.316406 C 171.882812 198.019531 172.105469 197.703125 172.308594 197.375 C 172.515625 197.046875 172.699219 196.707031 172.859375 196.355469 C 173.019531 196.003906 173.160156 195.644531 173.277344 195.277344 C 173.390625 194.910156 173.484375 194.535156 173.554688 194.152344 C 173.625 193.773438 173.667969 193.390625 173.691406 193.003906 C 173.710938 192.617188 173.707031 192.234375 173.679688 191.847656 C 173.652344 191.460938 173.601562 191.078125 173.527344 190.699219 C 173.453125 190.320312 173.351562 189.949219 173.230469 189.582031 C 173.109375 189.214844 172.964844 188.859375 172.796875 188.507812 C 167.226562 177.207031 157.421875 170.390625 146.699219 170.222656 L 146.449219 170.222656 C 135.644531 170.222656 125.753906 177.039062 119.851562 188.34375 C 119.574219 188.878906 119.355469 189.433594 119.1875 190.011719 C 119.019531 190.589844 118.914062 191.179688 118.863281 191.78125 C 118.8125 192.378906 118.820312 192.980469 118.890625 193.578125 C 118.957031 194.175781 119.082031 194.761719 119.265625 195.335938 C 119.449219 195.90625 119.6875 196.457031 119.976562 196.984375 C 120.269531 197.511719 120.609375 198.003906 120.996094 198.464844 C 121.386719 198.921875 121.816406 199.339844 122.289062 199.714844 C 122.757812 200.089844 123.261719 200.414062 123.796875 200.691406 C 124.332031 200.96875 124.886719 201.1875 125.46875 201.355469 C 126.046875 201.519531 126.636719 201.628906 127.234375 201.675781 C 127.835938 201.726562 128.433594 201.71875 129.03125 201.648438 C 129.628906 201.582031 130.214844 201.457031 130.789062 201.273438 C 131.363281 201.089844 131.910156 200.851562 132.4375 200.558594 C 132.964844 200.265625 133.457031 199.925781 133.917969 199.539062 C 134.375 199.148438 134.792969 198.71875 135.167969 198.246094 C 135.542969 197.777344 135.867188 197.273438 136.140625 196.738281 C 138.800781 191.585938 142.625 188.507812 146.449219 188.507812 C 150.273438 188.59375 153.847656 191.5 156.339844 196.570312 C 156.71875 197.339844 157.195312 198.042969 157.769531 198.679688 C 158.34375 199.316406 158.996094 199.863281 159.722656 200.316406 C 160.449219 200.773438 161.222656 201.121094 162.046875 201.359375 C 162.871094 201.597656 163.710938 201.71875 164.570312 201.726562 Z M 164.570312 201.726562 " fill-opacity="1" fill-rule="nonzero"/><path fill="#000000" d="M 238.125 170.222656 L 237.878906 170.222656 C 227.074219 170.222656 217.179688 177.039062 211.28125 188.34375 C 211.003906 188.878906 210.78125 189.433594 210.617188 190.011719 C 210.449219 190.589844 210.339844 191.179688 210.289062 191.78125 C 210.238281 192.382812 210.246094 192.980469 210.316406 193.578125 C 210.382812 194.175781 210.507812 194.761719 210.691406 195.335938 C 210.875 195.910156 211.113281 196.460938 211.402344 196.988281 C 211.695312 197.515625 212.035156 198.007812 212.425781 198.464844 C 212.8125 198.925781 213.242188 199.34375 213.714844 199.71875 C 214.183594 200.09375 214.6875 200.417969 215.222656 200.695312 C 215.757812 200.972656 216.316406 201.191406 216.894531 201.359375 C 217.472656 201.523438 218.0625 201.632812 218.664062 201.679688 C 219.261719 201.730469 219.863281 201.722656 220.460938 201.652344 C 221.058594 201.585938 221.644531 201.460938 222.21875 201.277344 C 222.789062 201.09375 223.339844 200.855469 223.867188 200.5625 C 224.394531 200.269531 224.886719 199.929688 225.347656 199.539062 C 225.804688 199.148438 226.222656 198.71875 226.597656 198.25 C 226.972656 197.777344 227.296875 197.273438 227.570312 196.738281 C 230.230469 191.585938 234.054688 188.507812 237.878906 188.507812 C 241.699219 188.59375 245.273438 191.5 247.769531 196.570312 C 248.03125 197.113281 248.347656 197.621094 248.714844 198.097656 C 249.078125 198.578125 249.484375 199.015625 249.9375 199.414062 C 250.390625 199.8125 250.875 200.160156 251.394531 200.464844 C 251.914062 200.765625 252.460938 201.015625 253.027344 201.210938 C 253.597656 201.402344 254.179688 201.542969 254.777344 201.621094 C 255.375 201.703125 255.972656 201.722656 256.574219 201.683594 C 257.171875 201.648438 257.765625 201.550781 258.34375 201.398438 C 258.925781 201.242188 259.488281 201.035156 260.027344 200.769531 C 260.570312 200.503906 261.078125 200.1875 261.554688 199.824219 C 262.035156 199.460938 262.472656 199.050781 262.871094 198.601562 C 263.269531 198.148438 263.617188 197.664062 263.921875 197.140625 C 264.222656 196.621094 264.472656 196.078125 264.664062 195.507812 C 264.859375 194.9375 265 194.355469 265.078125 193.761719 C 265.160156 193.164062 265.179688 192.566406 265.140625 191.964844 C 265.105469 191.363281 265.007812 190.773438 264.855469 190.191406 C 264.699219 189.609375 264.488281 189.050781 264.226562 188.507812 C 258.65625 177.207031 248.847656 170.390625 238.125 170.222656 Z M 238.125 170.222656 " fill-opacity="1" fill-rule="nonzero"/><path fill="#000000" d="M 223.832031 271.375 C 223.304688 271.089844 222.753906 270.859375 222.183594 270.679688 C 221.609375 270.503906 221.023438 270.382812 220.429688 270.320312 C 219.832031 270.257812 219.238281 270.253906 218.640625 270.308594 C 218.042969 270.363281 217.457031 270.476562 216.882812 270.644531 C 216.308594 270.816406 215.753906 271.039062 215.222656 271.316406 C 214.695312 271.59375 214.195312 271.921875 213.730469 272.300781 C 213.261719 272.675781 212.835938 273.09375 212.453125 273.554688 C 212.070312 274.015625 211.734375 274.507812 211.445312 275.035156 C 208.785156 279.9375 200.972656 283.179688 192.164062 283.179688 C 183.351562 283.179688 175.207031 279.855469 172.628906 275.035156 C 172.339844 274.511719 172 274.023438 171.613281 273.566406 C 171.230469 273.109375 170.800781 272.695312 170.335938 272.320312 C 169.867188 271.949219 169.371094 271.621094 168.839844 271.347656 C 168.308594 271.070312 167.757812 270.847656 167.183594 270.675781 C 166.613281 270.507812 166.027344 270.394531 165.433594 270.339844 C 164.835938 270.285156 164.242188 270.285156 163.648438 270.347656 C 163.050781 270.40625 162.46875 270.523438 161.898438 270.695312 C 161.324219 270.871094 160.773438 271.097656 160.246094 271.375 C 159.714844 271.660156 159.21875 271.992188 158.753906 272.375 C 158.292969 272.753906 157.871094 273.179688 157.488281 273.644531 C 157.109375 274.109375 156.777344 274.605469 156.492188 275.136719 C 156.210938 275.664062 155.984375 276.21875 155.808594 276.792969 C 155.636719 277.367188 155.519531 277.957031 155.460938 278.554688 C 155.402344 279.152344 155.40625 279.75 155.464844 280.347656 C 155.523438 280.945312 155.640625 281.53125 155.816406 282.105469 C 155.992188 282.679688 156.222656 283.230469 156.507812 283.761719 C 162.40625 294.734375 175.621094 301.964844 192.164062 301.464844 C 208.703125 300.964844 221.503906 294.734375 227.40625 283.84375 C 227.699219 283.316406 227.9375 282.769531 228.125 282.195312 C 228.308594 281.621094 228.433594 281.035156 228.503906 280.4375 C 228.574219 279.835938 228.582031 279.238281 228.535156 278.636719 C 228.484375 278.035156 228.378906 277.445312 228.210938 276.867188 C 228.046875 276.289062 227.824219 275.730469 227.546875 275.195312 C 227.269531 274.660156 226.945312 274.15625 226.570312 273.683594 C 226.191406 273.214844 225.773438 272.785156 225.3125 272.394531 C 224.851562 272.007812 224.359375 271.667969 223.832031 271.375 Z M 223.832031 271.375 " fill-opacity="1" fill-rule="nonzero"/><g clip-path="url(#4085b92937)"><path fill="#000000" d="M 347.09375 164.570312 C 324.902344 101.902344 266.136719 58.347656 199.726562 55.191406 C 197.816406 42.886719 199.3125 32.5 204.546875 25.765625 C 205.421875 24.617188 206.414062 23.582031 207.523438 22.660156 C 208.632812 21.738281 209.832031 20.953125 211.121094 20.304688 C 212.410156 19.65625 213.753906 19.160156 215.15625 18.820312 C 216.558594 18.480469 217.984375 18.300781 219.425781 18.285156 C 220.027344 18.285156 220.621094 18.34375 221.210938 18.460938 C 221.796875 18.578125 222.371094 18.75 222.925781 18.980469 C 223.480469 19.210938 224.003906 19.492188 224.503906 19.828125 C 225.003906 20.160156 225.464844 20.539062 225.890625 20.964844 C 226.316406 21.386719 226.695312 21.851562 227.027344 22.347656 C 227.359375 22.847656 227.644531 23.375 227.871094 23.929688 C 228.101562 24.484375 228.277344 25.054688 228.394531 25.644531 C 228.511719 26.234375 228.566406 26.828125 228.570312 27.429688 C 228.566406 28.027344 228.625 28.625 228.742188 29.210938 C 228.859375 29.800781 229.035156 30.371094 229.265625 30.925781 C 229.492188 31.480469 229.777344 32.007812 230.109375 32.507812 C 230.441406 33.007812 230.820312 33.46875 231.246094 33.894531 C 231.671875 34.316406 232.132812 34.695312 232.632812 35.03125 C 233.128906 35.363281 233.65625 35.644531 234.210938 35.875 C 234.765625 36.105469 235.339844 36.277344 235.925781 36.394531 C 236.515625 36.511719 237.109375 36.570312 237.710938 36.570312 C 238.3125 36.570312 238.90625 36.511719 239.496094 36.394531 C 240.082031 36.277344 240.65625 36.105469 241.210938 35.875 C 241.765625 35.644531 242.292969 35.363281 242.789062 35.03125 C 243.289062 34.695312 243.75 34.316406 244.175781 33.894531 C 244.601562 33.46875 244.980469 33.007812 245.3125 32.507812 C 245.648438 32.007812 245.929688 31.480469 246.15625 30.925781 C 246.386719 30.371094 246.5625 29.800781 246.679688 29.210938 C 246.796875 28.625 246.855469 28.027344 246.855469 27.429688 C 246.855469 26.53125 246.808594 25.632812 246.722656 24.738281 C 246.632812 23.847656 246.503906 22.957031 246.328125 22.078125 C 246.152344 21.195312 245.933594 20.324219 245.671875 19.464844 C 245.414062 18.605469 245.109375 17.761719 244.765625 16.933594 C 244.421875 16.101562 244.039062 15.292969 243.617188 14.5 C 243.191406 13.707031 242.730469 12.9375 242.230469 12.191406 C 241.734375 11.441406 241.199219 10.722656 240.628906 10.027344 C 240.058594 9.332031 239.457031 8.667969 238.820312 8.035156 C 238.183594 7.398438 237.519531 6.796875 236.824219 6.226562 C 236.132812 5.65625 235.410156 5.121094 234.664062 4.621094 C 233.917969 4.125 233.148438 3.664062 232.355469 3.238281 C 231.5625 2.816406 230.75 2.433594 229.921875 2.085938 C 229.09375 1.742188 228.246094 1.441406 227.386719 1.179688 C 226.527344 0.921875 225.65625 0.703125 224.777344 0.527344 C 223.894531 0.351562 223.007812 0.21875 222.113281 0.132812 C 221.21875 0.0429688 220.324219 0 219.425781 0 C 216.585938 0.015625 213.789062 0.347656 211.027344 1.003906 C 208.265625 1.65625 205.613281 2.613281 203.070312 3.875 C 200.527344 5.132812 198.160156 6.664062 195.96875 8.46875 C 193.777344 10.269531 191.816406 12.296875 190.085938 14.546875 C 182.1875 24.6875 179.363281 38.980469 181.359375 55.273438 C 116.109375 59.59375 58.761719 102.898438 36.902344 164.570312 L 36.570312 164.570312 C 20.941406 164.570312 9.140625 184.1875 9.140625 210.285156 C 9.140625 233.476562 18.449219 251.59375 31.5 255.25 C 32 257.511719 32.550781 259.761719 33.148438 262 C 33.742188 264.238281 34.386719 266.464844 35.078125 268.675781 C 35.769531 270.886719 36.507812 273.082031 37.292969 275.261719 C 38.074219 277.441406 38.90625 279.601562 39.78125 281.746094 C 40.65625 283.890625 41.574219 286.015625 42.539062 288.121094 C 43.503906 290.226562 44.515625 292.3125 45.566406 294.375 C 46.621094 296.4375 47.71875 298.476562 48.855469 300.496094 C 49.996094 302.511719 51.175781 304.503906 52.402344 306.46875 C 53.625 308.4375 54.890625 310.378906 56.195312 312.289062 C 57.5 314.203125 58.84375 316.089844 60.230469 317.945312 C 61.617188 319.800781 63.039062 321.628906 64.503906 323.425781 C 65.964844 325.222656 67.464844 326.984375 69 328.71875 C 70.539062 330.453125 72.113281 332.152344 73.71875 333.816406 C 75.328125 335.484375 76.972656 337.117188 78.652344 338.710938 C 80.328125 340.308594 82.039062 341.871094 83.78125 343.394531 C 85.527344 344.917969 87.300781 346.40625 89.109375 347.855469 C 90.914062 349.304688 92.753906 350.714844 94.617188 352.089844 C 96.484375 353.460938 98.378906 354.792969 100.300781 356.085938 C 102.222656 357.375 104.171875 358.628906 106.148438 359.835938 C 108.125 361.046875 110.125 362.214844 112.148438 363.339844 C 114.175781 364.464844 116.222656 365.546875 118.292969 366.582031 C 120.363281 367.621094 122.453125 368.617188 124.566406 369.566406 C 126.679688 370.515625 128.8125 371.421875 130.960938 372.28125 C 133.113281 373.140625 135.28125 373.957031 137.464844 374.722656 C 139.652344 375.492188 141.851562 376.214844 144.066406 376.890625 C 146.28125 377.566406 148.511719 378.191406 150.753906 378.773438 C 152.996094 379.355469 155.25 379.886719 157.515625 380.375 C 159.78125 380.859375 162.054688 381.296875 164.335938 381.6875 C 166.621094 382.078125 168.910156 382.417969 171.207031 382.710938 C 173.507812 383.003906 175.808594 383.25 178.117188 383.445312 C 180.425781 383.640625 182.738281 383.785156 185.050781 383.882812 C 187.367188 383.980469 189.679688 384.03125 191.996094 384.03125 C 194.3125 384.03125 196.628906 383.980469 198.941406 383.882812 C 201.257812 383.785156 203.566406 383.640625 205.875 383.445312 C 208.183594 383.25 210.488281 383.003906 212.785156 382.710938 C 215.082031 382.417969 217.375 382.078125 219.65625 381.6875 C 221.941406 381.296875 224.214844 380.859375 226.480469 380.375 C 228.742188 379.886719 230.996094 379.355469 233.238281 378.773438 C 235.480469 378.191406 237.710938 377.566406 239.925781 376.890625 C 242.140625 376.214844 244.34375 375.492188 246.527344 374.722656 C 248.714844 373.957031 250.882812 373.140625 253.03125 372.28125 C 255.183594 371.421875 257.316406 370.515625 259.425781 369.566406 C 261.539062 368.617188 263.632812 367.621094 265.703125 366.582031 C 267.773438 365.546875 269.820312 364.464844 271.84375 363.339844 C 273.871094 362.214844 275.871094 361.046875 277.84375 359.835938 C 279.820312 358.628906 281.769531 357.375 283.691406 356.085938 C 285.613281 354.792969 287.507812 353.460938 289.375 352.089844 C 291.242188 350.714844 293.078125 349.304688 294.886719 347.855469 C 296.691406 346.40625 298.46875 344.917969 300.210938 343.394531 C 301.953125 341.871094 303.664062 340.308594 305.34375 338.710938 C 307.019531 337.117188 308.664062 335.484375 310.273438 333.816406 C 311.882812 332.152344 313.457031 330.453125 314.992188 328.71875 C 316.527344 326.984375 318.027344 325.222656 319.492188 323.425781 C 320.953125 321.628906 322.378906 319.800781 323.761719 317.945312 C 325.148438 316.089844 326.492188 314.203125 327.800781 312.289062 C 329.105469 310.378906 330.371094 308.4375 331.59375 306.46875 C 332.816406 304.503906 333.996094 302.511719 335.136719 300.496094 C 336.277344 298.476562 337.375 296.4375 338.425781 294.375 C 339.480469 292.3125 340.488281 290.226562 341.453125 288.121094 C 342.417969 286.015625 343.339844 283.890625 344.214844 281.746094 C 345.089844 279.601562 345.917969 277.441406 346.703125 275.261719 C 347.488281 273.082031 348.222656 270.886719 348.914062 268.675781 C 349.605469 266.464844 350.25 264.238281 350.847656 262 C 351.445312 259.761719 351.992188 257.511719 352.496094 255.25 C 365.546875 251.59375 374.855469 233.476562 374.855469 210.285156 C 374.855469 184.019531 363.46875 164.738281 347.09375 164.570312 Z M 347.507812 237.546875 L 347.425781 237.546875 C 346.1875 237.175781 344.925781 237.085938 343.648438 237.277344 C 342.367188 237.464844 341.191406 237.914062 340.109375 238.628906 C 339.003906 239.300781 338.085938 240.175781 337.359375 241.25 C 336.636719 242.324219 336.167969 243.5 335.957031 244.777344 C 335.589844 246.875 335.179688 248.964844 334.722656 251.046875 C 334.269531 253.125 333.765625 255.195312 333.21875 257.25 C 332.671875 259.308594 332.082031 261.355469 331.445312 263.386719 C 330.808594 265.417969 330.128906 267.433594 329.40625 269.4375 C 328.683594 271.4375 327.914062 273.425781 327.105469 275.394531 C 326.292969 277.363281 325.4375 279.3125 324.542969 281.242188 C 323.648438 283.175781 322.710938 285.085938 321.730469 286.976562 C 320.75 288.867188 319.730469 290.734375 318.667969 292.578125 C 317.605469 294.425781 316.503906 296.246094 315.363281 298.042969 C 314.222656 299.84375 313.042969 301.613281 311.824219 303.359375 C 310.605469 305.105469 309.351562 306.824219 308.058594 308.515625 C 306.765625 310.207031 305.433594 311.871094 304.066406 313.503906 C 302.703125 315.136719 301.300781 316.738281 299.863281 318.308594 C 298.429688 319.882812 296.957031 321.421875 295.453125 322.929688 C 293.949219 324.4375 292.414062 325.910156 290.847656 327.351562 C 289.28125 328.789062 287.679688 330.195312 286.050781 331.566406 C 284.421875 332.9375 282.761719 334.269531 281.074219 335.570312 C 279.386719 336.867188 277.671875 338.128906 275.929688 339.351562 C 274.1875 340.574219 272.417969 341.757812 270.625 342.902344 C 268.828125 344.050781 267.011719 345.15625 265.167969 346.222656 C 263.324219 347.285156 261.460938 348.3125 259.570312 349.296875 C 257.683594 350.28125 255.773438 351.226562 253.847656 352.125 C 251.917969 353.027344 249.96875 353.886719 248.003906 354.703125 C 246.035156 355.519531 244.054688 356.289062 242.054688 357.019531 C 240.050781 357.75 238.039062 358.433594 236.007812 359.074219 C 233.976562 359.71875 231.933594 360.3125 229.878906 360.867188 C 227.820312 361.417969 225.753906 361.925781 223.675781 362.386719 C 221.597656 362.847656 219.507812 363.261719 217.414062 363.632812 C 215.316406 364.003906 213.210938 364.328125 211.101562 364.605469 C 208.992188 364.886719 206.875 365.117188 204.753906 365.304688 C 202.632812 365.488281 200.507812 365.628906 198.382812 365.722656 C 196.253906 365.816406 194.125 365.859375 191.996094 365.859375 C 189.867188 365.859375 187.738281 365.816406 185.613281 365.722656 C 183.484375 365.628906 181.363281 365.488281 179.242188 365.304688 C 177.121094 365.117188 175.003906 364.886719 172.894531 364.605469 C 170.78125 364.328125 168.679688 364.003906 166.582031 363.632812 C 164.484375 363.261719 162.398438 362.847656 160.320312 362.386719 C 158.242188 361.925781 156.171875 361.417969 154.117188 360.867188 C 152.058594 360.3125 150.015625 359.71875 147.988281 359.074219 C 145.957031 358.433594 143.941406 357.75 141.941406 357.019531 C 139.941406 356.289062 137.957031 355.519531 135.992188 354.703125 C 134.023438 353.886719 132.078125 353.027344 130.148438 352.125 C 128.21875 351.226562 126.308594 350.28125 124.421875 349.296875 C 122.535156 348.3125 120.667969 347.289062 118.828125 346.222656 C 116.984375 345.15625 115.164062 344.050781 113.371094 342.902344 C 111.574219 341.757812 109.808594 340.574219 108.0625 339.351562 C 106.320312 338.128906 104.605469 336.867188 102.917969 335.570312 C 101.230469 334.269531 99.570312 332.9375 97.941406 331.566406 C 96.3125 330.195312 94.714844 328.789062 93.148438 327.351562 C 91.578125 325.910156 90.042969 324.4375 88.539062 322.929688 C 87.035156 321.421875 85.566406 319.882812 84.128906 318.308594 C 82.695312 316.738281 81.292969 315.136719 79.925781 313.503906 C 78.558594 311.871094 77.230469 310.207031 75.9375 308.515625 C 74.644531 306.824219 73.386719 305.105469 72.167969 303.359375 C 70.949219 301.613281 69.769531 299.84375 68.628906 298.042969 C 67.488281 296.246094 66.386719 294.425781 65.324219 292.578125 C 64.265625 290.734375 63.246094 288.867188 62.265625 286.976562 C 61.285156 285.085938 60.347656 283.175781 59.449219 281.242188 C 58.554688 279.3125 57.703125 277.363281 56.890625 275.394531 C 56.078125 273.425781 55.3125 271.4375 54.585938 269.4375 C 53.863281 267.433594 53.183594 265.417969 52.546875 263.386719 C 51.910156 261.355469 51.320312 259.308594 50.773438 257.25 C 50.226562 255.195312 49.726562 253.125 49.269531 251.046875 C 48.8125 248.964844 48.402344 246.875 48.039062 244.777344 C 47.835938 243.519531 47.378906 242.359375 46.667969 241.296875 C 45.957031 240.238281 45.054688 239.375 43.964844 238.710938 C 42.851562 238.054688 41.652344 237.640625 40.367188 237.46875 C 39.085938 237.296875 37.816406 237.378906 36.570312 237.714844 C 34.324219 237.714844 27.425781 227.988281 27.425781 210.285156 C 27.425781 192.582031 34.242188 182.773438 37.398438 183.4375 C 37.695312 183.652344 38.003906 183.847656 38.324219 184.023438 C 38.644531 184.199219 38.976562 184.359375 39.3125 184.496094 C 39.652344 184.632812 39.996094 184.75 40.351562 184.84375 C 40.703125 184.941406 41.058594 185.015625 41.421875 185.070312 C 41.785156 185.125 42.148438 185.15625 42.511719 185.167969 C 42.878906 185.179688 43.242188 185.167969 43.605469 185.136719 C 43.972656 185.101562 44.332031 185.046875 44.691406 184.972656 C 45.046875 184.898438 45.398438 184.800781 45.746094 184.683594 C 46.089844 184.566406 46.429688 184.429688 46.757812 184.269531 C 47.089844 184.113281 47.410156 183.9375 47.71875 183.742188 C 48.027344 183.542969 48.324219 183.332031 48.605469 183.101562 C 48.890625 182.871094 49.160156 182.625 49.414062 182.359375 C 49.667969 182.097656 49.90625 181.820312 50.125 181.53125 C 50.347656 181.238281 50.550781 180.9375 50.734375 180.621094 C 50.921875 180.304688 51.085938 179.980469 51.234375 179.644531 C 51.378906 179.308594 51.507812 178.96875 51.613281 178.617188 C 69.648438 116.53125 127.332031 73.144531 191.996094 73.144531 C 256.660156 73.144531 314.34375 116.53125 332.382812 178.617188 C 333.210938 181.445312 335.871094 183.4375 338.699219 184.4375 C 340.222656 184.871094 341.765625 184.949219 343.328125 184.671875 C 344.886719 184.394531 346.308594 183.789062 347.589844 182.855469 C 349.917969 183.191406 356.566406 192.914062 356.566406 210.285156 C 356.566406 227.65625 349.835938 237.546875 347.507812 237.546875 Z M 347.507812 237.546875 " fill-opacity="1" fill-rule="nonzero"/></g></svg>