<svg xmlns="http://www.w3.org/2000/svg" xmlns:xlink="http://www.w3.org/1999/xlink" width="512" zoomAndPan="magnify" viewBox="0 0 384 383.999986" height="512" preserveAspectRatio="xMidYMid meet" version="1.0"><defs><clipPath id="a4612b3b87"><path d="M 33.191406 0.289062 L 382.394531 0.289062 L 382.394531 350 L 33.191406 350 Z M 33.191406 0.289062 " clip-rule="nonzero"/></clipPath><clipPath id="a74ac97334"><path d="M 55 315 L 124 315 L 124 383.65625 L 55 383.65625 Z M 55 315 " clip-rule="nonzero"/></clipPath></defs><g clip-path="url(#a4612b3b87)"><path fill="#000000" d="M 205.855469 252.085938 C 221.117188 244.273438 237.386719 234.453125 253.707031 223.277344 C 260.183594 258.910156 250.167969 296.976562 223.589844 325.019531 C 223.253906 299.476562 217.132812 274.589844 205.855469 252.085938 Z M 147.214844 265.195312 C 133.398438 279.015625 111.570312 281.835938 100.523438 282.339844 C 101.003906 271.316406 103.800781 249.542969 117.683594 235.664062 C 123.863281 229.480469 130.332031 224.582031 136.507812 220.984375 L 161.890625 246.367188 C 158.296875 252.546875 153.398438 259.011719 147.214844 265.195312 Z M 57.855469 159.285156 C 85.90625 132.710938 123.972656 122.691406 159.597656 129.171875 C 148.429688 145.496094 138.601562 161.757812 130.792969 177.023438 C 108.285156 165.742188 83.402344 159.621094 57.855469 159.285156 Z M 365.277344 17.621094 C 367.453125 27.382812 371.683594 54.855469 360.414062 87.746094 L 295.132812 22.464844 C 327.898438 11.269531 355.503906 15.472656 365.277344 17.621094 Z M 185.414062 245.625 C 184.589844 245.988281 183.765625 246.359375 182.957031 246.707031 L 179.75 243.507812 L 136.171875 199.925781 C 136.515625 199.113281 136.886719 198.289062 137.25 197.464844 C 139.167969 193.140625 141.28125 188.699219 143.589844 184.15625 C 151.855469 167.914062 162.527344 150.445312 174.75 132.984375 C 177.652344 128.832031 180.640625 124.679688 183.707031 120.546875 C 199.21875 99.640625 216.65625 79.183594 234.515625 61.324219 C 248.59375 47.242188 264.011719 36.203125 280.394531 28.453125 L 354.425781 102.480469 C 346.675781 118.867188 335.636719 134.28125 321.558594 148.363281 C 303.695312 166.222656 283.234375 183.660156 262.332031 199.171875 C 258.199219 202.238281 254.046875 205.226562 249.898438 208.132812 C 232.429688 220.347656 214.964844 231.027344 198.722656 239.285156 C 194.175781 241.59375 189.734375 243.714844 185.414062 245.625 Z M 266.769531 214.054688 C 289.773438 197.324219 312.382812 178.257812 331.917969 158.726562 C 348.597656 142.046875 361.378906 123.5625 369.917969 103.785156 C 391.777344 53.125 378.835938 11.125 378.277344 9.359375 C 377.554688 7.097656 375.78125 5.324219 373.515625 4.605469 C 371.753906 4.046875 329.753906 -8.894531 279.09375 12.964844 C 259.316406 21.496094 240.828125 34.28125 224.152344 50.960938 C 204.617188 70.496094 185.558594 93.101562 168.824219 116.109375 C 125.8125 106.007812 78.679688 117.679688 45.207031 151.152344 C 41.683594 154.679688 38.226562 158.578125 34.929688 162.753906 C 33.113281 165.054688 32.839844 168.210938 34.238281 170.789062 C 35.636719 173.359375 38.433594 174.859375 41.351562 174.589844 C 70.398438 171.902344 99.070312 177.480469 124.425781 190.230469 C 123.101562 193.175781 121.867188 196.066406 120.722656 198.898438 C 119.628906 201.625 120.261719 204.738281 122.339844 206.816406 L 125.796875 210.273438 C 119.554688 214.285156 113.3125 219.308594 107.316406 225.300781 C 83.5625 249.054688 85.761719 288.492188 85.867188 290.15625 C 85.984375 292.003906 86.773438 293.65625 88 294.878906 C 89.222656 296.101562 90.878906 296.898438 92.71875 297.011719 C 94.386719 297.113281 133.824219 299.3125 157.578125 275.558594 C 163.566406 269.570312 168.597656 263.320312 172.609375 257.085938 L 176.0625 260.539062 C 178.136719 262.617188 181.253906 263.25 183.976562 262.152344 C 186.808594 261.015625 189.699219 259.773438 192.644531 258.449219 C 205.398438 283.804688 210.976562 312.484375 208.289062 341.527344 C 208.082031 343.730469 208.886719 345.867188 210.402344 347.382812 C 210.890625 347.875 211.460938 348.300781 212.089844 348.644531 C 214.664062 350.039062 217.828125 349.769531 220.128906 347.949219 C 224.296875 344.652344 228.203125 341.191406 231.722656 337.667969 C 265.195312 304.203125 276.871094 257.066406 266.769531 214.054688 " fill-opacity="1" fill-rule="nonzero"/></g><path fill="#000000" d="M 248.328125 134.546875 C 239.570312 125.789062 239.570312 111.53125 248.328125 102.773438 C 257.09375 94.007812 271.34375 94.007812 280.109375 102.773438 C 288.867188 111.53125 288.867188 125.789062 280.109375 134.546875 C 271.34375 143.308594 257.09375 143.308594 248.328125 134.546875 Z M 290.46875 92.40625 C 275.996094 77.933594 252.441406 77.933594 237.96875 92.40625 C 223.496094 106.886719 223.496094 130.433594 237.96875 144.910156 C 252.441406 159.382812 275.996094 159.382812 290.46875 144.910156 C 304.941406 130.433594 304.941406 106.886719 290.46875 92.40625 " fill-opacity="1" fill-rule="nonzero"/><path fill="#000000" d="M 72.171875 310.703125 C 69.3125 307.839844 64.675781 307.839844 61.8125 310.703125 L 7.929688 364.585938 C 5.070312 367.445312 5.070312 372.085938 7.929688 374.945312 C 10.792969 377.808594 15.429688 377.808594 18.292969 374.945312 L 72.171875 321.0625 C 75.035156 318.203125 75.035156 313.5625 72.171875 310.703125 " fill-opacity="1" fill-rule="nonzero"/><path fill="#000000" d="M 90.824219 196.71875 C 87.96875 193.859375 83.324219 193.859375 80.464844 196.71875 L 26.582031 250.601562 C 23.71875 253.464844 23.71875 258.105469 26.582031 260.964844 C 29.441406 263.824219 34.082031 263.828125 36.941406 260.964844 L 90.824219 207.082031 C 93.6875 204.222656 93.6875 199.582031 90.824219 196.71875 " fill-opacity="1" fill-rule="nonzero"/><path fill="#000000" d="M 68.453125 264.152344 C 65.59375 261.289062 60.953125 261.289062 58.089844 264.152344 L 4.207031 318.03125 C 1.347656 320.894531 1.347656 325.535156 4.207031 328.394531 C 7.070312 331.257812 11.707031 331.257812 14.570312 328.394531 L 68.453125 274.511719 C 71.3125 271.648438 71.3125 267.011719 68.453125 264.152344 " fill-opacity="1" fill-rule="nonzero"/><path fill="#000000" d="M 188.996094 294.890625 C 186.136719 292.03125 181.496094 292.03125 178.636719 294.890625 L 124.753906 348.773438 C 121.890625 351.636719 121.890625 356.277344 124.753906 359.136719 C 127.613281 361.996094 132.253906 361.996094 135.113281 359.136719 L 188.996094 305.257812 C 191.859375 302.394531 191.859375 297.753906 188.996094 294.890625 " fill-opacity="1" fill-rule="nonzero"/><g clip-path="url(#a74ac97334)"><path fill="#000000" d="M 121.566406 317.265625 C 118.707031 314.402344 114.066406 314.402344 111.203125 317.265625 L 57.324219 371.148438 C 54.460938 374.007812 54.460938 378.652344 57.324219 381.507812 C 60.183594 384.375 64.828125 384.375 67.6875 381.507812 L 121.566406 327.628906 C 124.425781 324.769531 124.425781 320.125 121.566406 317.265625 " fill-opacity="1" fill-rule="nonzero"/></g></svg>