<svg xmlns="http://www.w3.org/2000/svg" xmlns:xlink="http://www.w3.org/1999/xlink" width="512" zoomAndPan="magnify" viewBox="0 0 384 383.999986" height="512" preserveAspectRatio="xMidYMid meet" version="1.0"><defs><clipPath id="4fe5044b19"><path d="M 0 32 L 384 32 L 384 352.171875 L 0 352.171875 Z M 0 32 " clip-rule="nonzero"/></clipPath></defs><g clip-path="url(#4fe5044b19)"><path fill="#000000" d="M 83.199219 121.625 C 100.84375 121.625 115.199219 107.265625 115.199219 89.613281 C 115.199219 71.964844 100.84375 57.605469 83.199219 57.605469 C 65.554688 57.605469 51.199219 71.964844 51.199219 89.613281 C 51.199219 107.265625 65.554688 121.625 83.199219 121.625 Z M 83.199219 70.410156 C 93.785156 70.410156 102.398438 79.027344 102.398438 89.613281 C 102.398438 100.203125 93.785156 108.820312 83.199219 108.820312 C 72.613281 108.820312 64 100.203125 64 89.613281 C 64 79.027344 72.613281 70.410156 83.199219 70.410156 Z M 300.800781 160.035156 C 283.15625 160.035156 268.800781 174.394531 268.800781 192.046875 C 268.800781 209.695312 283.15625 224.054688 300.800781 224.054688 C 318.445312 224.054688 332.800781 209.695312 332.800781 192.046875 C 332.800781 174.394531 318.445312 160.035156 300.800781 160.035156 Z M 300.800781 211.25 C 290.214844 211.25 281.601562 202.632812 281.601562 192.046875 C 281.601562 181.457031 290.214844 172.839844 300.800781 172.839844 C 311.386719 172.839844 320 181.457031 320 192.046875 C 320 202.632812 311.386719 211.25 300.800781 211.25 Z M 160 262.464844 C 142.355469 262.464844 128 276.824219 128 294.476562 C 128 312.125 142.355469 326.484375 160 326.484375 C 177.644531 326.484375 192 312.125 192 294.476562 C 192 276.824219 177.644531 262.464844 160 262.464844 Z M 160 313.679688 C 149.414062 313.679688 140.800781 305.066406 140.800781 294.476562 C 140.800781 283.886719 149.414062 275.269531 160 275.269531 C 170.585938 275.269531 179.199219 283.886719 179.199219 294.476562 C 179.199219 305.066406 170.585938 313.679688 160 313.679688 Z M 364.800781 275.269531 L 214.296875 275.269531 C 206.371094 252.914062 185.03125 236.859375 160 236.859375 C 134.96875 236.859375 113.628906 252.914062 105.703125 275.269531 L 19.199219 275.269531 C 8.617188 275.269531 0 283.886719 0 294.476562 C 0 305.0625 8.617188 313.679688 19.199219 313.679688 L 105.703125 313.679688 C 113.628906 336.035156 134.96875 352.09375 160 352.09375 C 185.03125 352.09375 206.371094 336.035156 214.296875 313.679688 L 364.800781 313.679688 C 375.382812 313.679688 384 305.0625 384 294.476562 C 384 283.886719 375.382812 275.269531 364.800781 275.269531 Z M 19.199219 300.875 C 15.671875 300.875 12.800781 298.003906 12.800781 294.476562 C 12.800781 290.945312 15.671875 288.074219 19.199219 288.074219 L 102.765625 288.074219 C 102.53125 290.175781 102.398438 292.308594 102.398438 294.476562 C 102.398438 296.640625 102.53125 298.773438 102.765625 300.875 Z M 160 339.289062 C 135.296875 339.289062 115.199219 319.183594 115.199219 294.476562 C 115.199219 269.765625 135.296875 249.660156 160 249.660156 C 184.703125 249.660156 204.800781 269.765625 204.800781 294.476562 C 204.800781 319.183594 184.703125 339.289062 160 339.289062 Z M 364.800781 300.875 L 217.234375 300.875 C 217.46875 298.773438 217.601562 296.640625 217.601562 294.476562 C 217.601562 292.308594 217.46875 290.175781 217.234375 288.074219 L 364.800781 288.074219 C 368.328125 288.074219 371.199219 290.945312 371.199219 294.476562 C 371.199219 298.003906 368.328125 300.875 364.800781 300.875 Z M 364.800781 172.839844 L 355.097656 172.839844 C 347.171875 150.484375 325.832031 134.429688 300.800781 134.429688 C 275.769531 134.429688 254.429688 150.484375 246.503906 172.839844 L 19.199219 172.839844 C 8.617188 172.839844 0 181.457031 0 192.046875 C 0 202.632812 8.617188 211.25 19.199219 211.25 L 246.503906 211.25 C 254.429688 233.605469 275.769531 249.660156 300.800781 249.660156 C 325.832031 249.660156 347.171875 233.605469 355.097656 211.25 L 364.800781 211.25 C 375.382812 211.25 384 202.632812 384 192.046875 C 384 181.457031 375.382812 172.839844 364.800781 172.839844 Z M 19.199219 198.445312 C 15.671875 198.445312 12.800781 195.574219 12.800781 192.046875 C 12.800781 188.515625 15.671875 185.644531 19.199219 185.644531 L 243.5625 185.644531 C 243.332031 187.746094 243.199219 189.878906 243.199219 192.046875 C 243.199219 194.210938 243.332031 196.34375 243.5625 198.445312 Z M 300.800781 236.859375 C 276.097656 236.859375 256 216.753906 256 192.046875 C 256 167.335938 276.097656 147.230469 300.800781 147.230469 C 325.503906 147.230469 345.601562 167.335938 345.601562 192.046875 C 345.601562 216.753906 325.503906 236.859375 300.800781 236.859375 Z M 364.800781 198.445312 L 358.035156 198.445312 C 358.269531 196.34375 358.398438 194.210938 358.398438 192.046875 C 358.398438 189.878906 358.269531 187.746094 358.035156 185.644531 L 364.800781 185.644531 C 368.328125 185.644531 371.199219 188.515625 371.199219 192.046875 C 371.199219 195.574219 368.328125 198.445312 364.800781 198.445312 Z M 19.199219 108.820312 L 28.902344 108.820312 C 36.828125 131.175781 58.167969 147.230469 83.199219 147.230469 C 108.230469 147.230469 129.570312 131.175781 137.496094 108.820312 L 364.800781 108.820312 C 375.382812 108.820312 384 100.203125 384 89.613281 C 384 79.027344 375.382812 70.410156 364.800781 70.410156 L 137.496094 70.410156 C 129.570312 48.054688 108.230469 32 83.199219 32 C 58.167969 32 36.828125 48.054688 28.902344 70.410156 L 19.199219 70.410156 C 8.617188 70.410156 0 79.027344 0 89.613281 C 0 100.203125 8.617188 108.820312 19.199219 108.820312 Z M 364.800781 83.214844 C 368.328125 83.214844 371.199219 86.085938 371.199219 89.613281 C 371.199219 93.144531 368.328125 96.015625 364.800781 96.015625 L 140.4375 96.015625 C 140.667969 93.914062 140.800781 91.78125 140.800781 89.613281 C 140.800781 87.449219 140.667969 85.316406 140.4375 83.214844 Z M 83.199219 44.800781 C 107.902344 44.800781 128 64.90625 128 89.613281 C 128 114.324219 107.902344 134.429688 83.199219 134.429688 C 58.496094 134.429688 38.398438 114.324219 38.398438 89.613281 C 38.398438 64.90625 58.496094 44.800781 83.199219 44.800781 Z M 19.199219 83.214844 L 25.964844 83.214844 C 25.730469 85.316406 25.601562 87.449219 25.601562 89.613281 C 25.601562 91.78125 25.730469 93.914062 25.964844 96.015625 L 19.199219 96.015625 C 15.671875 96.015625 12.800781 93.144531 12.800781 89.613281 C 12.800781 86.085938 15.671875 83.214844 19.199219 83.214844 Z M 19.199219 83.214844 " fill-opacity="1" fill-rule="nonzero"/></g></svg>