<svg xmlns="http://www.w3.org/2000/svg" xmlns:xlink="http://www.w3.org/1999/xlink" width="512" zoomAndPan="magnify" viewBox="0 0 384 383.999986" height="512" preserveAspectRatio="xMidYMid meet" version="1.0"><path fill="#000000" d="M 206.765625 60.921875 L 208.195312 47.980469 C 197.789062 46.808594 186.730469 47.070312 176.128906 48.761719 L 178.144531 61.636719 C 187.578125 60.078125 197.464844 59.882812 206.765625 60.921875 Z M 206.765625 60.921875 " fill-opacity="1" fill-rule="nonzero"/><path fill="#000000" d="M 230.574219 53.507812 C 221.660156 3.101562 163.054688 3.035156 154.140625 53.507812 C 1.933594 107.625 27.496094 374.691406 192.324219 379.960938 C 357.21875 374.691406 382.652344 107.492188 230.574219 53.507812 Z M 158.957031 65.671875 C 163.117188 64.304688 166.175781 60.726562 166.828125 56.304688 C 172.941406 19.492188 211.644531 19.425781 217.824219 56.304688 C 218.539062 60.726562 221.53125 64.304688 225.695312 65.671875 C 275.261719 81.933594 311.296875 132.925781 317.996094 193.285156 L 298.285156 211.367188 L 277.730469 192.179688 L 277.730469 144.828125 C 277.730469 137.675781 271.878906 131.820312 264.722656 131.820312 L 119.929688 131.820312 C 112.773438 131.820312 106.917969 137.675781 106.917969 144.828125 L 106.917969 192.179688 L 85.972656 211.367188 L 66.652344 193.351562 C 73.355469 132.992188 109.324219 81.996094 158.957031 65.671875 Z M 264.722656 144.828125 L 264.722656 274.199219 L 119.929688 274.199219 L 119.929688 144.828125 Z M 192.324219 366.949219 C 121.359375 367.277344 63.335938 295.078125 65.546875 210.066406 C 65.546875 210.066406 77.125 220.863281 77.125 220.863281 C 82.199219 225.613281 90.136719 225.613281 95.273438 220.863281 L 106.984375 210 L 106.984375 274.199219 C 106.984375 281.355469 112.835938 287.207031 119.992188 287.207031 L 264.789062 287.207031 C 271.941406 287.207031 277.796875 281.355469 277.796875 274.199219 L 277.796875 210 L 289.503906 220.863281 C 294.578125 225.613281 302.515625 225.613281 307.652344 220.863281 L 319.230469 210.066406 C 321.3125 295.078125 263.292969 367.277344 192.324219 366.949219 Z M 192.324219 366.949219 " fill-opacity="1" fill-rule="nonzero"/><path fill="#000000" d="M 140.871094 270.035156 L 243.710938 270.035156 C 250.996094 270.035156 256.980469 264.117188 256.980469 256.769531 L 256.980469 162.195312 C 256.980469 154.910156 251.0625 148.925781 243.710938 148.925781 L 140.871094 148.925781 C 133.585938 148.925781 127.601562 154.84375 127.601562 162.195312 L 127.601562 256.832031 C 127.667969 264.117188 133.585938 270.035156 140.871094 270.035156 Z M 140.871094 161.933594 L 243.972656 162.195312 L 243.972656 256.832031 C 243.972656 256.964844 243.84375 257.09375 243.710938 257.09375 L 140.613281 256.832031 Z M 140.871094 161.933594 " fill-opacity="1" fill-rule="nonzero"/><path fill="#000000" d="M 198.050781 292.933594 L 186.601562 292.933594 C 179.25 292.933594 173.332031 298.914062 173.332031 306.199219 L 173.332031 338.789062 C 173.332031 346.136719 179.316406 352.054688 186.601562 352.054688 L 198.050781 352.054688 C 205.398438 352.054688 211.320312 346.070312 211.320312 338.789062 L 211.320312 306.199219 C 211.320312 298.851562 205.398438 292.933594 198.050781 292.933594 Z M 198.308594 338.789062 C 198.308594 338.917969 198.179688 339.046875 198.050781 339.046875 L 186.339844 338.789062 L 186.601562 305.875 L 198.308594 306.136719 Z M 198.308594 338.789062 " fill-opacity="1" fill-rule="nonzero"/><path fill="#000000" d="M 253.664062 292.933594 L 232.394531 292.933594 C 225.238281 292.933594 219.449219 298.722656 219.449219 305.875 L 219.449219 329.097656 C 219.058594 340.542969 234.410156 346.59375 241.957031 337.8125 C 241.957031 337.8125 263.226562 314.589844 263.226562 314.589844 C 270.902344 306.851562 264.65625 292.476562 253.664062 292.933594 Z M 232.460938 329.097656 L 232.394531 305.941406 L 253.601562 305.808594 Z M 232.460938 329.097656 " fill-opacity="1" fill-rule="nonzero"/><path fill="#000000" d="M 152.257812 292.933594 L 130.984375 292.933594 C 120.058594 292.542969 113.75 306.851562 121.425781 314.65625 C 121.425781 314.65625 142.695312 337.875 142.695312 337.875 C 150.175781 346.59375 165.589844 340.609375 165.199219 329.160156 C 165.199219 329.160156 165.199219 305.941406 165.199219 305.941406 C 165.199219 298.722656 159.347656 292.933594 152.257812 292.933594 Z M 152.125 328.835938 L 130.921875 305.941406 L 152.125 305.875 Z M 152.125 328.835938 " fill-opacity="1" fill-rule="nonzero"/><path stroke-linecap="butt" transform="matrix(0.75, 0, 0, 0.75, 130.559997, 138.70808)" fill="none" stroke-linejoin="miter" d="M -0.00187082 1.998602 L 163.841892 1.998602 " stroke="#000000" stroke-width="4" stroke-opacity="1" stroke-miterlimit="4"/></svg>