<svg xmlns="http://www.w3.org/2000/svg" xmlns:xlink="http://www.w3.org/1999/xlink" width="512" zoomAndPan="magnify" viewBox="0 0 384 383.999986" height="512" preserveAspectRatio="xMidYMid meet" version="1.0"><defs><clipPath id="538367e0c5"><path d="M 46.320312 0 L 337.320312 0 L 337.320312 384 L 46.320312 384 Z M 46.320312 0 " clip-rule="nonzero"/></clipPath></defs><g clip-path="url(#538367e0c5)"><path fill="#000000" d="M 295.574219 96.53125 C 271.304688 58.460938 241.28125 34.890625 209.675781 28.402344 C 210.929688 25.820312 211.65625 22.972656 211.65625 19.863281 C 211.65625 8.9375 202.730469 0 191.820312 0 C 180.910156 0 171.980469 8.9375 171.980469 19.863281 C 171.980469 22.90625 172.710938 25.753906 173.964844 28.402344 C 142.289062 34.890625 112.335938 58.460938 88.066406 96.53125 C 61.945312 137.511719 46.339844 190.542969 46.339844 238.34375 C 46.339844 328.1875 102.085938 384 191.820312 384 C 281.554688 384 337.300781 328.1875 337.300781 238.34375 C 337.300781 190.476562 321.695312 137.511719 295.574219 96.53125 Z M 185.207031 19.863281 C 185.207031 16.21875 188.183594 13.242188 191.820312 13.242188 C 195.457031 13.242188 198.433594 16.21875 198.433594 19.863281 C 198.433594 23.503906 195.457031 26.484375 191.820312 26.484375 C 188.183594 26.484375 185.207031 23.503906 185.207031 19.863281 Z M 191.820312 39.722656 C 249.285156 39.722656 297.953125 106.527344 316.269531 178.757812 L 277.785156 178.757812 L 277.785156 132.414062 C 277.785156 125.132812 271.832031 119.171875 264.558594 119.171875 L 119.082031 119.171875 C 111.804688 119.171875 105.855469 125.132812 105.855469 132.414062 L 105.855469 178.757812 L 67.367188 178.757812 C 85.6875 106.527344 134.355469 39.722656 191.820312 39.722656 Z M 264.558594 132.414062 L 264.558594 238.34375 L 119.082031 238.34375 L 119.082031 132.414062 Z M 191.820312 370.757812 C 109.027344 370.757812 59.566406 321.234375 59.566406 238.34375 C 59.566406 223.25 61.285156 207.558594 64.394531 192 L 105.855469 192 L 105.855469 238.34375 C 105.855469 245.628906 111.804688 251.585938 119.082031 251.585938 L 264.558594 251.585938 C 271.832031 251.585938 277.785156 245.628906 277.785156 238.34375 L 277.785156 192 L 319.246094 192 C 322.355469 207.558594 324.074219 223.25 324.074219 238.34375 C 324.074219 321.234375 274.609375 370.757812 191.820312 370.757812 Z M 191.820312 370.757812 " fill-opacity="1" fill-rule="nonzero"/></g><path fill="#000000" d="M 251.335938 284.691406 C 240.421875 284.691406 231.496094 293.628906 231.496094 304.550781 C 231.496094 315.476562 240.421875 324.414062 251.335938 324.414062 C 262.246094 324.414062 271.171875 315.476562 271.171875 304.550781 C 271.171875 293.628906 262.246094 284.691406 251.335938 284.691406 Z M 251.335938 311.171875 C 247.699219 311.171875 244.722656 308.191406 244.722656 304.550781 C 244.722656 300.910156 247.699219 297.929688 251.335938 297.929688 C 254.972656 297.929688 257.945312 300.910156 257.945312 304.550781 C 257.945312 308.191406 254.972656 311.171875 251.335938 311.171875 Z M 251.335938 311.171875 " fill-opacity="1" fill-rule="nonzero"/><path fill="#000000" d="M 132.304688 284.691406 C 121.394531 284.691406 112.46875 293.628906 112.46875 304.550781 C 112.46875 315.476562 121.394531 324.414062 132.304688 324.414062 C 143.214844 324.414062 152.144531 315.476562 152.144531 304.550781 C 152.144531 293.628906 143.214844 284.691406 132.304688 284.691406 Z M 132.304688 311.171875 C 128.667969 311.171875 125.691406 308.191406 125.691406 304.550781 C 125.691406 300.910156 128.667969 297.929688 132.304688 297.929688 C 135.941406 297.929688 138.917969 300.910156 138.917969 304.550781 C 138.917969 308.191406 135.941406 311.171875 132.304688 311.171875 Z M 132.304688 311.171875 " fill-opacity="1" fill-rule="nonzero"/><path fill="#000000" d="M 191.820312 278.070312 C 177.207031 278.070312 165.371094 289.921875 165.371094 304.550781 C 165.371094 319.183594 177.207031 331.035156 191.820312 331.035156 C 206.433594 331.035156 218.269531 319.183594 218.269531 304.550781 C 218.269531 289.921875 206.433594 278.070312 191.820312 278.070312 Z M 191.820312 317.792969 C 184.546875 317.792969 178.59375 311.835938 178.59375 304.550781 C 178.59375 297.269531 184.546875 291.308594 191.820312 291.308594 C 199.09375 291.308594 205.046875 297.269531 205.046875 304.550781 C 205.046875 311.835938 199.09375 317.792969 191.820312 317.792969 Z M 191.820312 317.792969 " fill-opacity="1" fill-rule="nonzero"/></svg>