<svg xmlns="http://www.w3.org/2000/svg" xmlns:xlink="http://www.w3.org/1999/xlink" width="512" zoomAndPan="magnify" viewBox="0 0 384 383.999986" height="512" preserveAspectRatio="xMidYMid meet" version="1.0"><defs><clipPath id="b0c1c2d4eb"><path d="M 87 0 L 378.078125 0 L 378.078125 209 L 87 209 Z M 87 0 " clip-rule="nonzero"/></clipPath><clipPath id="428155ef86"><path d="M 6.078125 175 L 378.078125 175 L 378.078125 384 L 6.078125 384 Z M 6.078125 175 " clip-rule="nonzero"/></clipPath></defs><g clip-path="url(#b0c1c2d4eb)"><path fill="#000000" d="M 354.582031 19.90625 L 110.804688 19.90625 C 109.78125 19.882812 108.886719 20.207031 108.121094 20.882812 C 107.519531 21.679688 107.195312 22.574219 107.144531 23.566406 L 107.144531 104.417969 C 107.089844 105.449219 107.414062 106.34375 108.121094 107.101562 C 108.875 107.804688 109.769531 108.164062 110.804688 108.171875 L 178.460938 108.171875 C 179.101562 108.171875 179.738281 108.238281 180.367188 108.363281 C 180.992188 108.488281 181.605469 108.671875 182.195312 108.917969 C 182.789062 109.160156 183.351562 109.460938 183.882812 109.820312 C 184.417969 110.175781 184.910156 110.578125 185.363281 111.03125 C 185.816406 111.484375 186.222656 111.976562 186.578125 112.511719 C 186.933594 113.042969 187.234375 113.605469 187.480469 114.199219 C 187.726562 114.789062 187.910156 115.398438 188.035156 116.027344 C 188.160156 116.65625 188.222656 117.292969 188.222656 117.933594 L 188.222656 185.558594 C 188.226562 186.515625 188.554688 187.34375 189.199219 188.046875 C 189.917969 188.707031 190.765625 189.03125 191.738281 189.023438 L 273.355469 189.023438 C 273.839844 189.035156 274.304688 188.941406 274.75 188.746094 C 275.195312 188.546875 275.574219 188.265625 275.894531 187.902344 L 276.1875 187.902344 C 276.726562 187.195312 277.003906 186.398438 277.015625 185.511719 L 277.015625 117.980469 C 277.015625 117.339844 277.078125 116.707031 277.203125 116.078125 C 277.328125 115.449219 277.515625 114.839844 277.761719 114.246094 C 278.003906 113.65625 278.304688 113.09375 278.664062 112.558594 C 279.019531 112.027344 279.421875 111.535156 279.875 111.082031 C 280.328125 110.628906 280.824219 110.222656 281.355469 109.867188 C 281.890625 109.511719 282.453125 109.210938 283.042969 108.964844 C 283.636719 108.71875 284.246094 108.535156 284.875 108.410156 C 285.503906 108.285156 286.140625 108.222656 286.78125 108.222656 L 354.582031 108.222656 C 355.617188 108.210938 356.511719 107.851562 357.269531 107.148438 L 357.269531 106.855469 C 357.816406 106.136719 358.074219 105.320312 358.050781 104.417969 L 358.050781 23.566406 C 358.070312 23.320312 358.066406 23.074219 358.035156 22.832031 C 358.003906 22.585938 357.945312 22.347656 357.863281 22.113281 C 357.777344 21.882812 357.667969 21.664062 357.539062 21.453125 C 357.40625 21.246094 357.25 21.054688 357.078125 20.878906 C 356.902344 20.703125 356.710938 20.550781 356.5 20.417969 C 356.292969 20.285156 356.074219 20.179688 355.839844 20.09375 C 355.609375 20.011719 355.371094 19.953125 355.125 19.921875 C 354.878906 19.890625 354.632812 19.886719 354.386719 19.90625 Z M 273.355469 0.390625 L 354.582031 0.390625 C 355.351562 0.390625 356.113281 0.429688 356.878906 0.503906 C 357.640625 0.578125 358.398438 0.691406 359.152344 0.839844 C 359.902344 0.988281 360.648438 1.171875 361.382812 1.394531 C 362.117188 1.617188 362.835938 1.875 363.546875 2.167969 C 364.253906 2.460938 364.949219 2.785156 365.625 3.148438 C 366.300781 3.507812 366.960938 3.898438 367.597656 4.324219 C 368.234375 4.75 368.851562 5.207031 369.445312 5.691406 C 370.039062 6.175781 370.609375 6.6875 371.152344 7.230469 C 371.695312 7.769531 372.210938 8.335938 372.699219 8.929688 C 373.1875 9.519531 373.644531 10.132812 374.070312 10.769531 C 374.5 11.40625 374.894531 12.0625 375.257812 12.738281 C 375.621094 13.414062 375.953125 14.101562 376.246094 14.8125 C 376.542969 15.519531 376.804688 16.238281 377.027344 16.972656 C 377.253906 17.703125 377.441406 18.445312 377.59375 19.199219 C 377.746094 19.949219 377.863281 20.707031 377.941406 21.46875 C 378.019531 22.230469 378.058594 22.996094 378.0625 23.761719 L 378.0625 104.417969 C 378.066406 105.878906 377.929688 107.324219 377.65625 108.761719 C 377.382812 110.195312 376.976562 111.59375 376.4375 112.949219 C 375.898438 114.308594 375.234375 115.601562 374.449219 116.835938 C 373.664062 118.066406 372.769531 119.210938 371.765625 120.273438 C 371.765625 120.566406 371.328125 120.714844 371.082031 121.007812 C 369.996094 122.082031 368.8125 123.042969 367.539062 123.886719 C 366.261719 124.730469 364.917969 125.441406 363.503906 126.023438 C 362.085938 126.605469 360.628906 127.046875 359.128906 127.34375 C 357.628906 127.640625 356.113281 127.789062 354.582031 127.789062 L 296.6875 127.789062 L 296.6875 185.558594 C 296.671875 188.46875 296.132812 191.277344 295.070312 193.984375 C 294.011719 196.695312 292.5 199.121094 290.539062 201.269531 L 289.707031 202.003906 C 288.621094 203.078125 287.441406 204.039062 286.164062 204.882812 C 284.886719 205.726562 283.542969 206.4375 282.128906 207.019531 C 280.714844 207.601562 279.257812 208.042969 277.753906 208.339844 C 276.253906 208.636719 274.738281 208.785156 273.210938 208.785156 L 192.078125 208.785156 C 190.546875 208.789062 189.027344 208.644531 187.519531 208.351562 C 186.015625 208.058594 184.550781 207.621094 183.132812 207.039062 C 181.710938 206.457031 180.363281 205.742188 179.082031 204.894531 C 177.804688 204.046875 176.621094 203.082031 175.53125 202.003906 C 174.457031 200.917969 173.496094 199.742188 172.648438 198.472656 C 171.804688 197.199219 171.085938 195.859375 170.5 194.449219 C 169.914062 193.042969 169.472656 191.589844 169.167969 190.09375 C 168.863281 188.597656 168.707031 187.085938 168.699219 185.558594 L 168.699219 127.835938 L 110.804688 127.835938 C 109.285156 127.828125 107.785156 127.671875 106.296875 127.371094 C 104.808594 127.070312 103.363281 126.628906 101.964844 126.046875 C 100.5625 125.464844 99.230469 124.753906 97.964844 123.914062 C 96.703125 123.074219 95.53125 122.121094 94.449219 121.054688 C 93.363281 119.964844 92.390625 118.78125 91.539062 117.5 C 90.683594 116.21875 89.964844 114.867188 89.378906 113.441406 C 88.792969 112.019531 88.351562 110.550781 88.054688 109.039062 C 87.757812 107.53125 87.613281 106.003906 87.617188 104.464844 L 87.617188 23.566406 C 87.613281 22.800781 87.644531 22.035156 87.714844 21.273438 C 87.785156 20.511719 87.894531 19.753906 88.039062 19.003906 C 88.1875 18.25 88.367188 17.507812 88.589844 16.773438 C 88.808594 16.042969 89.0625 15.320312 89.351562 14.613281 C 89.644531 13.902344 89.96875 13.210938 90.328125 12.535156 C 90.6875 11.859375 91.078125 11.199219 91.503906 10.5625 C 91.925781 9.925781 92.378906 9.308594 92.867188 8.71875 C 93.351562 8.125 93.863281 7.558594 94.40625 7.015625 C 94.945312 6.472656 95.511719 5.957031 96.105469 5.472656 C 96.695312 4.988281 97.3125 4.53125 97.949219 4.105469 C 98.585938 3.679688 99.242188 3.289062 99.917969 2.925781 C 100.59375 2.566406 101.285156 2.242188 101.996094 1.949219 C 102.703125 1.65625 103.421875 1.402344 104.15625 1.179688 C 104.890625 0.960938 105.632812 0.773438 106.386719 0.628906 C 107.136719 0.480469 107.894531 0.371094 108.65625 0.300781 C 109.421875 0.226562 110.183594 0.191406 110.949219 0.195312 L 273.503906 0.195312 Z M 273.355469 0.390625 " fill-opacity="1" fill-rule="nonzero"/></g><g clip-path="url(#428155ef86)"><path fill="#000000" d="M 354.582031 276.265625 L 124.324219 276.265625 C 123.683594 276.265625 123.050781 276.203125 122.421875 276.078125 C 121.792969 275.953125 121.183594 275.769531 120.589844 275.523438 C 119.996094 275.277344 119.433594 274.976562 118.902344 274.621094 C 118.367188 274.265625 117.875 273.859375 117.421875 273.40625 C 116.96875 272.953125 116.5625 272.460938 116.207031 271.929688 C 115.851562 271.394531 115.550781 270.832031 115.304688 270.242188 C 115.058594 269.648438 114.875 269.039062 114.75 268.410156 C 114.625 267.78125 114.5625 267.148438 114.5625 266.507812 L 114.5625 199.074219 C 114.585938 198.574219 114.496094 198.09375 114.300781 197.628906 C 114.105469 197.167969 113.816406 196.773438 113.441406 196.441406 C 112.722656 195.6875 111.84375 195.3125 110.804688 195.316406 L 29.578125 195.316406 C 29.078125 195.324219 28.597656 195.421875 28.136719 195.617188 C 27.679688 195.808594 27.269531 196.078125 26.914062 196.429688 C 26.558594 196.78125 26.285156 197.183594 26.085938 197.640625 C 25.886719 198.097656 25.78125 198.578125 25.769531 199.074219 L 25.769531 360.921875 C 25.769531 361.972656 26.140625 362.867188 26.890625 363.605469 C 27.636719 364.339844 28.53125 364.699219 29.578125 364.679688 L 354.582031 364.679688 C 355.617188 364.667969 356.511719 364.308594 357.269531 363.605469 C 357.902344 362.820312 358.226562 361.925781 358.246094 360.921875 L 358.246094 280.070312 C 358.269531 279.046875 357.945312 278.152344 357.269531 277.386719 C 356.511719 276.683594 355.617188 276.324219 354.582031 276.3125 Z M 273.355469 256.75 L 354.582031 256.75 C 355.351562 256.738281 356.117188 256.769531 356.882812 256.839844 C 357.648438 256.90625 358.40625 257.011719 359.164062 257.15625 C 359.917969 257.296875 360.664062 257.476562 361.398438 257.695312 C 362.136719 257.914062 362.859375 258.164062 363.574219 258.453125 C 364.285156 258.742188 364.980469 259.066406 365.660156 259.425781 C 366.339844 259.78125 367 260.171875 367.640625 260.597656 C 368.28125 261.019531 368.898438 261.472656 369.496094 261.960938 C 370.089844 262.445312 370.660156 262.957031 371.207031 263.5 C 371.75 264.039062 372.269531 264.605469 372.757812 265.199219 C 373.246094 265.792969 373.703125 266.40625 374.128906 267.042969 C 374.558594 267.683594 374.953125 268.339844 375.316406 269.015625 C 375.679688 269.695312 376.003906 270.386719 376.300781 271.097656 C 376.59375 271.804688 376.851562 272.527344 377.074219 273.261719 C 377.292969 274 377.480469 274.742188 377.628906 275.496094 C 377.777344 276.25 377.886719 277.007812 377.957031 277.773438 C 378.03125 278.539062 378.066406 279.304688 378.0625 280.070312 L 378.0625 360.921875 C 378.058594 361.6875 378.019531 362.453125 377.941406 363.214844 C 377.863281 363.976562 377.746094 364.734375 377.59375 365.484375 C 377.441406 366.238281 377.253906 366.980469 377.027344 367.710938 C 376.804688 368.445312 376.542969 369.164062 376.246094 369.871094 C 375.953125 370.578125 375.621094 371.269531 375.257812 371.945312 C 374.894531 372.621094 374.5 373.277344 374.070312 373.914062 C 373.644531 374.550781 373.1875 375.164062 372.699219 375.753906 C 372.210938 376.347656 371.695312 376.914062 371.152344 377.453125 C 370.609375 377.996094 370.039062 378.507812 369.445312 378.992188 C 368.851562 379.476562 368.234375 379.933594 367.597656 380.359375 C 366.960938 380.78125 366.300781 381.175781 365.625 381.535156 C 364.949219 381.894531 364.253906 382.222656 363.546875 382.515625 C 362.835938 382.808594 362.117188 383.066406 361.382812 383.289062 C 360.648438 383.507812 359.902344 383.695312 359.152344 383.84375 C 358.398438 383.992188 357.640625 384.105469 356.878906 384.179688 C 356.113281 384.253906 355.351562 384.292969 354.582031 384.292969 L 29.578125 384.292969 C 28.042969 384.292969 26.519531 384.152344 25.015625 383.863281 C 23.507812 383.574219 22.039062 383.144531 20.613281 382.578125 C 19.1875 382.007812 17.828125 381.3125 16.539062 380.484375 C 15.246094 379.65625 14.042969 378.714844 12.929688 377.65625 C 11.851562 376.574219 10.890625 375.398438 10.042969 374.128906 C 9.191406 372.859375 8.476562 371.519531 7.890625 370.109375 C 7.304688 368.699219 6.859375 367.246094 6.558594 365.75 C 6.257812 364.253906 6.101562 362.742188 6.097656 361.214844 L 6.097656 199.125 C 6.09375 197.582031 6.242188 196.050781 6.539062 194.539062 C 6.835938 193.023438 7.277344 191.554688 7.863281 190.128906 C 8.449219 188.699219 9.167969 187.34375 10.023438 186.058594 C 10.875 184.773438 11.84375 183.582031 12.929688 182.484375 C 14.039062 181.414062 15.234375 180.460938 16.523438 179.617188 C 17.816406 178.777344 19.171875 178.066406 20.597656 177.484375 C 22.023438 176.90625 23.492188 176.464844 25.003906 176.164062 C 26.511719 175.863281 28.039062 175.710938 29.578125 175.703125 L 110.804688 175.703125 C 112.339844 175.714844 113.859375 175.867188 115.367188 176.167969 C 116.871094 176.46875 118.335938 176.910156 119.757812 177.492188 C 121.179688 178.074219 122.53125 178.78125 123.820312 179.621094 C 125.105469 180.460938 126.296875 181.417969 127.402344 182.484375 C 128.5 183.570312 129.484375 184.75 130.351562 186.03125 C 131.21875 187.308594 131.949219 188.660156 132.550781 190.082031 C 133.148438 191.507812 133.601562 192.976562 133.910156 194.488281 C 134.21875 196 134.375 197.53125 134.382812 199.074219 L 134.382812 256.652344 L 273.503906 256.652344 Z M 273.355469 256.75 " fill-opacity="1" fill-rule="nonzero"/></g></svg>